<svg xmlns="http://www.w3.org/2000/svg" xmlns:xlink="http://www.w3.org/1999/xlink" id="29e4b1a0-13d0-4a0f-9be2-3c3977a6a4ba" width="785" height="753.73" data-name="Layer 1" viewBox="0 0 785 753.73"><defs><linearGradient id="b4c3f788-9d51-49bd-96f9-c54f9fd51398" x1="452.8" x2="452.8" y1="753.73" gradientUnits="userSpaceOnUse"><stop offset="0" stop-color="gray" stop-opacity=".25"/><stop offset=".54" stop-color="gray" stop-opacity=".12"/><stop offset="1" stop-color="gray" stop-opacity=".1"/></linearGradient><linearGradient id="778ed1c4-cafd-494e-8a04-dc2b91aee6fd" x1="209.37" x2="209.37" y1="339.46" y2="101.61" xlink:href="#b4c3f788-9d51-49bd-96f9-c54f9fd51398"/><linearGradient id="92c6cb1b-63b4-4a00-ae9b-05b36bfadf3e" x1="32.38" x2="174.2" y1="227.8" y2="227.8" xlink:href="#b4c3f788-9d51-49bd-96f9-c54f9fd51398"/><linearGradient id="3111d6ac-9e05-4a73-9878-bd628330955d" x1="211.6" x2="211.6" y1="606.34" y2="582.89" xlink:href="#b4c3f788-9d51-49bd-96f9-c54f9fd51398"/><linearGradient id="2e076d7a-ee6b-46b6-b939-69cbad87608e" x1="572.28" x2="572.28" y1="718" y2="646.54" xlink:href="#b4c3f788-9d51-49bd-96f9-c54f9fd51398"/><linearGradient id="acad6429-7160-42af-9a00-db2d81d2388a" x1="630.34" x2="630.34" y1="245.66" y2="91.56" xlink:href="#b4c3f788-9d51-49bd-96f9-c54f9fd51398"/></defs><title>account</title><rect width="664.4" height="753.73" x="120.6" fill="url(#b4c3f788-9d51-49bd-96f9-c54f9fd51398)"/><rect width="643.19" height="725.82" x="130.65" y="14.52" fill="#fff"/><rect width="365.14" height="232.26" x="65.88" y="134" fill="#4191ff" opacity=".2"/><rect width="418.74" height="237.84" y="101.61" fill="url(#778ed1c4-cafd-494e-8a04-dc2b91aee6fd)"/><rect width="408.69" height="197.65" x="4.47" y="136.23" fill="#fff"/><rect width="141.81" height="149.63" x="32.38" y="152.98" fill="url(#92c6cb1b-63b4-4a00-ae9b-05b36bfadf3e)"/><rect width="134" height="142.93" x="36.85" y="156.33" fill="#4191ff"/><path fill="#fff" d="M348.77,285.9c-1-8.49-2.5-17-5.75-24.94s-8.47-15.24-15.74-19.75a18,18,0,0,0-8.7-3c-5.69-.2-10.95,3.64-13.88,8.52a39.74,39.74,0,0,0-2.59,5.27,12.27,12.27,0,0,0-10.18,11.24,31.28,31.28,0,0,0,4.42,59.06v5.33a31.39,31.39,0,0,0-23.45,30.27v14.52h62.53V357.88A31.39,31.39,0,0,0,312,327.61v-5.33A31.28,31.28,0,0,0,335.45,292c0-.07,0-.15,0-.22l3.52,7.83c3.35,7.46,6.78,15.46,5.47,23.54C350.86,312.15,350.33,298.54,348.77,285.9Z" transform="translate(-207.5 -73.13)"/><rect width="408.69" height="30.15" x="4.47" y="106.08" fill="#4191ff"/><rect width="155.21" height="10.05" x="225.56" y="198.2" fill="#e0e0e0"/><rect width="155.21" height="10.05" x="225.56" y="240.64" fill="#f5f5f5"/><rect width="91.56" height="10.05" x="224.45" y="219.42" fill="#4191ff" opacity=".2"/><rect width="62.53" height="10.05" x="224.45" y="261.85" fill="#69f0ae" opacity=".2"/><rect width="62.53" height="10.05" x="298.14" y="261.85" fill="#69f0ae"/><rect width="539.34" height="18.98" x="185.36" y="419.86" fill="#e0e0e0"/><rect width="179.78" height="18.98" x="185.36" y="461.17" fill="#e0e0e0"/><rect width="179.78" height="18.98" x="544.92" y="461.17" fill="#69f0ae"/><rect width="539.34" height="18.98" x="185.36" y="502.49" fill="#e0e0e0"/><rect width="539.34" height="18.98" x="185.36" y="543.81" fill="#e0e0e0"/><rect width="56.95" height="23.45" x="183.13" y="582.89" fill="url(#3111d6ac-9e05-4a73-9878-bd628330955d)"/><rect width="53.6" height="18.98" x="185.36" y="585.12" fill="#4191ff"/><rect width="53.6" height="18.98" x="426.56" y="585.12" fill="#69f0ae"/><rect width="53.6" height="18.98" x="671.1" y="585.12" fill="#69f0ae"/><rect width="318.24" height="71.47" x="413.16" y="646.54" fill="url(#2e076d7a-ee6b-46b6-b939-69cbad87608e)"/><rect width="305.96" height="54.72" x="418.74" y="654.35" fill="#4191ff"/><rect width="305.96" height="54.72" x="418.74" y="654.35" opacity=".2"/><rect width="202.11" height="154.1" x="529.29" y="91.56" fill="url(#acad6429-7160-42af-9a00-db2d81d2388a)"/><rect width="187.6" height="134" x="537.11" y="101.61" fill="#4191ff"/><rect width="187.6" height="134" x="537.11" y="101.61" fill="#fff" opacity=".2"/></svg>